# xmcd
#
# Track frame offsets:
#	150
#	10537
#	21627
#	32327
#	43610
#	54917
#	66222
#	75802
#	88912
#	100552
#	111337
#	121867
#	132897
#	142710
#	154645
#	165970
#	174665
#	186317
#	199020
#	211770
#	221175
#	231832
#	244847
#	256282
#
# Disc length: 3553 seconds
#
# Revision: 0
# Processed by: cddbd v1.4PL0 Copyright (c) Steve Scherf et al.
# Submitted via: audiograbber 1.81.02
#
DISCID=340ddf18
DTITLE=Patsy Cline - The Patsy Cline Collection Vol 2
DYEAR=2001
DGENRE=Country
TTITLE0=Walking Dream
TTITLE1=Stop The World
TTITLE2=I Don't Wanta
TTITLE3=Hungry For Love
TTITLE4=Cry Not For Me
TTITLE5=Just Out Of Reach
TTITLE6=I'm Moving Along
TTITLE7=If I Could See The World
TTITLE8=Let The Teardrops Fall
TTITLE9=I Can See An Angel
TTITLE10=Lovesick Blues
TTITLE11=There He Goes
TTITLE12=I'm Blue Again
TTITLE13=If I Could Only Stay Asleep
TTITLE14=That Wonderful Someone
TTITLE15=Ain't No Wheels On This Ship
TTITLE16=Never No More
TTITLE17=Yes I Understand
TTITLE18=Just A Closer Walk With Thee
TTITLE19=Love Me, Love Me Honey Do
TTITLE20=Gotta Lot Of Rhythm In My Soul
TTITLE21=Life's Railway To Heaven
TTITLE22=Crazy Dreams
TTITLE23=How Can I Face Tomorrow
EXTD=
EXTT0=
EXTT1=
EXTT2=
EXTT3=
EXTT4=
EXTT5=
EXTT6=
EXTT7=
EXTT8=
EXTT9=
EXTT10=
EXTT11=
EXTT12=
EXTT13=
EXTT14=
EXTT15=
EXTT16=
EXTT17=
EXTT18=
EXTT19=
EXTT20=
EXTT21=
EXTT22=
EXTT23=
PLAYORDER=
